<svg xmlns="http://www.w3.org/2000/svg" width="3262.3" height="2054.4"><path d="M1394.7 0c-141.334 0-262 50-362 150s-150 220.667-150 362 50 262 150 362 220.666 150 362 150c141.333 0 262-50 362-150s150-220.667 150-362-50-262-150-362-220.667-150-362-150zm0 160c9.333 0 17 3 23 9s9 13.667 9 23-3 17-9 23-13.667 9-23 9c-79.334 0-147.167 28.167-203.5 84.5-56.334 56.333-84.5 124.167-84.5 203.5 0 9.333-3 17-9 23s-13.667 9-23 9c-9.334 0-17-3-23-9s-9-13.667-9-23c0-97.333 34.333-180.333 103-249 68.666-68.667 151.666-103 249-103zm-128 913v638.861h-.003v80h59.862c1.367.083 2.743.139 4.14.139h128a68.72 68.72 0 004.14-.139h59.858v-63.777l.002-.084v-655c-41.333 10-84 15-128 15-44.666 0-87.333-5-128-15z"/><g font-family="Arial Black" font-size="1333.3" aria-label="tr" style="line-height:1.25"><path d="M363.271 837.021v263.015h145.83v193.354h-145.83v245.437q0 44.27 8.464 58.592 13.02 22.135 45.571 22.135 29.297 0 82.03-16.927l19.53 182.938q-98.304 21.484-183.589 21.484-98.956 0-145.83-25.39-46.873-25.39-69.66-76.82-22.134-52.083-22.134-167.965V1293.39H-.001v-193.354h97.654v-126.95zM637.353 1100.036h248.04v113.278q35.807-73.566 73.567-100.909 38.41-27.994 94.398-27.994 58.593 0 128.252 36.457l-82.029 188.798q-46.874-19.53-74.217-19.53-52.082 0-80.727 42.967-41.015 60.545-41.015 226.557v231.765H637.353z"/></g><g font-family="Arial Black" font-size="1333.3" aria-label="ps" style="line-height:1.25"><path d="M1684.84 2054.439v-954.403h248.04v102.21q51.43-64.45 94.398-87.237 57.942-30.598 128.252-30.598 138.669 0 214.188 106.117 76.17 106.117 76.17 262.363 0 172.522-82.68 263.666-82.68 90.492-208.98 90.492-61.196 0-111.976-20.833-50.129-20.832-89.841-61.847v330.07zm265.618-606.756q0 82.03 34.504 121.742 34.504 39.713 87.237 39.713 46.223 0 77.472-37.76 31.25-38.41 31.25-129.554 0-83.982-32.552-123.044-32.551-39.712-79.425-39.712-50.78 0-84.633 39.712-33.853 39.713-33.853 128.903zM2527.266 1600.023l263.014-24.739q16.276 46.874 45.572 67.056 29.296 20.182 78.123 20.182 53.384 0 82.68-22.786 22.786-16.927 22.786-42.317 0-28.645-29.947-44.27-21.484-11.067-113.93-27.343-138.017-24.088-192.052-44.27-53.384-20.832-90.492-69.66-36.458-48.826-36.458-111.325 0-68.357 39.713-117.835 39.712-49.478 109.372-73.566 69.66-24.739 186.844-24.739 123.695 0 182.287 18.88 59.244 18.88 98.305 58.592 39.713 39.713 65.754 107.42l-251.296 24.738q-9.765-33.202-32.551-48.827-31.25-20.833-75.52-20.833-44.92 0-65.753 16.276-20.182 15.625-20.182 38.41 0 25.39 26.041 38.411 26.041 13.02 113.279 23.437 132.158 14.974 196.61 41.666 64.451 26.692 98.304 76.17 34.505 49.478 34.505 108.72 0 59.895-36.458 116.534-35.806 56.64-113.93 90.493-77.471 33.202-211.582 33.202-189.449 0-270.176-54.035-80.076-54.035-102.862-153.642z"/></g></svg>